Coordinates
version=1
nRows=17
nColumns=34
inDegrees=yes

Units are S.I. units (second, meters, Newtons, ...)
If the header above contains a line with 'inDegrees', this indicates whether rotational values are in degrees (yes) or radians (no).

endheader
time	pelvis_tilt	pelvis_list	pelvis_rotation	pelvis_tx	pelvis_ty	pelvis_tz	hip_flexion_r	hip_adduction_r	hip_rotation_r	knee_angle_r	ankle_angle_r	subtalar_angle_r	mtp_angle_r	hip_flexion_l	hip_adduction_l	hip_rotation_l	knee_angle_l	ankle_angle_l	subtalar_angle_l	mtp_angle_l	lumbar_extension	lumbar_bending	lumbar_rotation	arm_flex_r	arm_add_r	arm_rot_r	elbow_flex_r	pro_sup_r	arm_flex_l	arm_add_l	arm_rot_l	elbow_flex_l	pro_sup_l
      0.00000000	     -2.92228543	      4.18236585	    -26.13286636	      0.13955396	      0.69419975	      0.02251152	     73.01676856	    -18.50987055	     -3.94610189	     91.47845184	     30.95257126	     -1.33084726	      0.00000000	     74.23464785	    -18.32170717	     -6.14222262	     89.70390188	     29.52385234	     -0.55610097	      0.00000000	    -24.25956718	     -2.73208089	      0.35728949	     62.39743453	    -24.25347798	     38.45022040	    111.17362275	    119.74817918	     64.41400629	    -23.99819870	     30.17862874	    114.12107206	    119.18066087
      0.01666670	     -2.74181551	      4.13045533	    -26.17712289	      0.13909097	      0.69569258	      0.02237088	     72.68075599	    -18.54617712	     -4.00202036	     91.22546235	     30.66507207	     -1.19387674	      0.00000000	     73.91384181	    -18.46249782	     -6.34610045	     89.52911354	     28.98946555	     -0.54868699	      0.00000000	    -24.47166863	     -2.80836585	      0.37472787	     62.44524867	    -24.15663575	     38.40530171	    111.08895056	    119.74817918	     64.46952242	    -23.80065419	     30.09352909	    114.21450806	    119.47213944
      0.03333330	     -2.68684464	      4.09164139	    -26.18187770	      0.13939702	      0.69740023	      0.02308951	     72.35773611	    -18.51725882	     -4.15334259	     91.01183874	     30.90707360	     -1.32683954	      0.00000000	     73.51727203	    -18.47898596	     -6.44184030	     89.17774003	     29.37412453	     -0.78587280	      0.00000000	    -24.42131093	     -2.82891090	      0.38880566	     62.46210030	    -24.19635497	     38.46106241	    110.84400169	    119.74817918	     64.54552594	    -24.11782451	     30.10690805	    113.77926173	    119.67208340
      0.05000000	     -2.78464612	      4.13676435	    -26.13331379	      0.13996058	      0.69971714	      0.02356662	     72.09388114	    -18.49093734	     -4.21007089	     90.58768337	     30.81297556	     -1.28368613	      0.00000000	     73.27275367	    -18.44583895	     -6.51046091	     88.74828614	     29.24120551	     -0.69457430	      0.00000000	    -24.18254307	     -2.85551785	      0.42582359	     62.33523578	    -24.29246084	     38.46079440	    110.78016125	    119.74817918	     64.44560728	    -24.17139910	     30.09826376	    113.84306569	    119.71098242
      0.06666670	     -2.84809682	      4.14288782	    -26.10061737	      0.14151901	      0.70284919	      0.02459303	     71.60225967	    -18.58380574	     -4.44096094	     90.13261127	     30.68675722	     -1.27053028	      0.00000000	     72.77699843	    -18.54930376	     -6.71604335	     88.23901428	     29.11781955	     -0.57813529	      0.00000000	    -24.10405118	     -2.84436058	      0.45621477	     62.02881278	    -24.43039195	     38.43838151	    111.11003242	    119.74817918	     64.14840380	    -24.50567856	     30.25791559	    114.41849356	    119.74817918
      0.08333330	     -2.97689089	      4.20184411	    -26.06298792	      0.14270614	      0.70638071	      0.02551971	     71.14171051	    -18.58068386	     -4.64133017	     89.52365581	     30.65373788	     -1.32333859	      0.00000000	     72.31489767	    -18.58691928	     -6.94693493	     87.60936038	     29.08662353	     -0.50745301	      0.00000000	    -24.05897835	     -2.86997231	      0.44215829	     61.79077600	    -24.72815608	     38.48044654	    111.91875583	    119.74817918	     63.93389946	    -24.91351265	     30.32394164	    115.40494417	    119.74817918
      0.10000000	     -2.99930037	      4.22366427	    -26.04527747	      0.14433537	      0.71029812	      0.02659558	     70.57181123	    -18.58885194	     -4.80788149	     88.94458287	     30.43575856	     -1.35536138	      0.00000000	     71.71990292	    -18.61212718	     -7.15800892	     87.01383684	     28.95124086	     -0.43410780	      0.00000000	    -23.95750238	     -2.89127621	      0.45259877	     61.34916943	    -24.97340951	     38.46898325	    112.80048741	    119.74817918	     63.46646774	    -25.32131781	     30.33320330	    116.37685520	    119.74817918
      0.11666670	     -3.02305504	      4.25147350	    -26.05279716	      0.14618869	      0.71430259	      0.02767387	     69.97951043	    -18.59492018	     -4.97783861	     88.38496225	     30.41274130	     -1.42748158	      0.00000000	     71.07349366	    -18.61994574	     -7.38116890	     86.43023695	     29.01807805	     -0.37690586	      0.00000000	    -23.84214036	     -2.90324970	      0.46707868	     60.95028511	    -25.21861719	     38.31974372	    113.45894122	    119.74817918	     63.02484837	    -25.69023341	     30.21257072	    117.08166112	    119.74817918
      0.13333330	     -2.82986419	      4.23611538	    -26.07474859	      0.14807398	      0.71917578	      0.02886062	     69.05172254	    -18.57398876	     -5.08286970	     87.68125417	     30.59999780	     -1.51008058	      0.00000000	     70.04456138	    -18.59342039	     -7.67895188	     85.68889922	     29.31424638	     -0.13209027	      0.00000000	    -23.94801812	     -2.97161137	      0.50325203	     60.72676457	    -25.44555640	     38.12491575	    113.86308599	    119.74817918	     62.67924590	    -25.91036527	     29.89952133	    117.51670485	    119.74817918
      0.15000000	     -2.96882907	      4.31820032	    -26.02946886	      0.14962975	      0.72430057	      0.02991314	     68.37398034	    -18.51820511	     -5.27694957	     86.74949521	     30.50025428	     -1.51071458	      0.00000000	     69.35354426	    -18.54580043	     -7.97415820	     84.72598620	     29.20385564	     -0.05391382	      0.00000000	    -23.50782836	     -2.99557653	      0.53092368	     60.18043140	    -25.52454814	     38.43845679	    113.90462322	    119.74817918	     61.98637913	    -25.97261403	     30.11604289	    117.48732265	    119.74817918
      0.16666670	     -2.53958574	      4.17744548	    -26.05693518	      0.15153060	      0.73122530	      0.03116681	     66.95055548	    -18.42607287	     -5.43642102	     85.74673531	     30.34642910	     -1.77708333	      0.00000000	     67.83963556	    -18.46393559	     -8.37189557	     83.68763685	     29.14950596	     -0.09707636	      0.00000000	    -23.81534317	     -3.07380887	      0.49003774	     59.65545574	    -25.65262229	     38.49410911	    114.02963869	    119.74817918	     61.19771971	    -26.05979449	     29.83444861	    117.61172422	    119.74817918
      0.18333330	     -2.61794697	      4.21794737	    -26.03380241	      0.15362987	      0.73653987	      0.03243432	     66.25513396	    -18.36996809	     -5.61089865	     84.95103993	     30.10924947	     -1.77362292	      0.00000000	     67.14357292	    -18.37986392	     -8.56470939	     82.88368720	     28.91935521	     -0.08194156	      0.00000000	    -23.31136136	     -3.06174292	      0.53393142	     58.96004248	    -25.87909743	     38.76055163	    113.97002498	    119.74817918	     60.38660859	    -26.34207146	     30.14957248	    117.56042222	    119.74817918
      0.20000000	     -2.25153234	      4.02139855	    -26.00650671	      0.15545383	      0.74341188	      0.03384788	     64.86167767	    -18.30048920	     -5.90459717	     83.98232889	     29.79039771	     -2.10396355	      0.00000000	     65.80942056	    -18.26969756	     -8.74865930	     81.92328288	     28.59647542	     -0.28207777	      0.00000000	    -23.51910701	     -3.06159669	      0.51704045	     58.45139483	    -25.88030217	     38.53780442	    113.67479857	    119.74817918	     59.82830927	    -26.42344741	     30.15305919	    117.41239732	    119.74817918
      0.21666670	     -2.37866677	      4.09808176	    -25.97717880	      0.15704541	      0.74913765	      0.03518407	     64.14536111	    -18.17921778	     -6.12590420	     83.00425165	     29.58084568	     -2.08452602	      0.00000000	     65.10083967	    -18.09312025	     -8.89779775	     80.91808809	     28.36710956	     -0.20916492	      0.00000000	    -23.01997297	     -3.07551628	      0.58348680	     57.93753976	    -26.02725634	     38.77621135	    113.47568383	    119.74817918	     59.13666806	    -26.53834578	     30.53801949	    117.26161967	    119.74817918
      0.23333330	     -1.97279042	      3.86912121	    -25.92505975	      0.15835876	      0.75698644	      0.03657546	     62.54015503	    -18.06229516	     -6.54903960	     81.73211426	     29.27795548	     -2.47797899	      0.00000000	     63.57305366	    -17.89725360	     -9.08096992	     79.64729649	     28.06291200	     -0.35957553	      0.00000000	    -23.38582268	     -3.06101553	      0.56923177	     57.49460169	    -26.09714458	     38.60518061	    113.05335065	    119.74817918	     58.64447464	    -26.62598700	     30.77241698	    116.89826037	    119.74817918
      0.25000000	     -1.96580850	      3.86970214	    -25.90535029	      0.15992175	      0.76400874	      0.03805576	     61.45984462	    -17.96370436	     -6.95427930	     80.44757686	     28.94948889	     -2.59762981	      0.00000000	     62.52010002	    -17.76331845	     -9.38631632	     78.37976000	     27.71819938	     -0.38260628	      0.00000000	    -23.07671112	     -3.08016633	      0.64756265	     56.80578988	    -26.32039839	     38.68044479	    112.64422136	    119.74817918	     57.76249697	    -26.79557884	     31.05549737	    116.55026278	    119.74817918
      0.26666670	     -1.72534624	      3.74417462	    -25.86975834	      0.16150963	      0.77189515	      0.03966345	     60.02903997	    -17.71948771	     -7.23809338	     79.06315286	     28.52328473	     -2.85348111	      0.00000000	     61.14091031	    -17.54488496	     -9.62129731	     77.04584383	     27.32661198	     -0.50909464	      0.00000000	    -23.06536427	     -3.08882708	      0.65076793	     56.11426775	    -26.34523561	     38.71509577	    112.11152300	    119.74817918	     56.98194245	    -26.81593315	     31.37762745	    115.98770783	    119.74817918
